<?xml version="1.0" encoding="utf-8" standalone="no"?>
<svg xmlns:dc="http://purl.org/dc/elements/1.1/"
     xmlns:cc="http://creativecommons.org/ns#"
     xmlns:rdf="http://www.w3.org/1999/02/22-rdf-syntax-ns#"
     xmlns:xlink="http://www.w3.org/1999/xlink"
     xmlns:sodipodi="http://sodipodi.sourceforge.net/DTD/sodipodi-0.dtd"
     xmlns:inkscape="http://www.inkscape.org/namespaces/inkscape"
     xmlns="http://www.w3.org/2000/svg" version="1.1" width="231" height="80"
     id="svg2" inkscape:version="0.48.5 r10040" sodipodi:docname="test1.svg">
    <title id="title3014">test1</title>
    <sodipodi:namedview pagecolor="#ffffff" bordercolor="#666666"
                        borderopacity="1" objecttolerance="10"
                        gridtolerance="10" guidetolerance="10"
                        inkscape:pageopacity="0" inkscape:pageshadow="2"
                        inkscape:window-width="919" inkscape:window-height="584"
                        id="namedview3012" showgrid="false" inkscape:zoom="2.64"
                        inkscape:cx="116" inkscape:cy="40"
                        inkscape:window-x="2007" inkscape:window-y="162"
                        inkscape:window-maximized="0"
                        inkscape:current-layer="svg2"/>
    <defs id="defs4">
        <linearGradient id="linearGradient3847">
            <stop id="stop3849" style="stop-color:#ffffff;stop-opacity:1"
                  offset="0"/>
            <stop id="stop3851" style="stop-color:#ffffff;stop-opacity:0"
                  offset="1"/>
        </linearGradient>
        <linearGradient id="linearGradient3833">
            <stop id="stop3835" style="stop-color:#ffffff;stop-opacity:1"
                  offset="0"/>
            <stop id="stop3837" style="stop-color:#ffffff;stop-opacity:0"
                  offset="1"/>
        </linearGradient>
        <filter color-interpolation-filters="sRGB" id="filter3809">
            <feGaussianBlur id="feGaussianBlur3811" stdDeviation="2.8"/>
        </filter>
        <filter color-interpolation-filters="sRGB" id="filter3829">
            <feGaussianBlur id="feGaussianBlur3831" stdDeviation="3.16"/>
        </filter>
        <radialGradient cx="202" cy="-11.1" r="83.6" fx="202" fy="-11.1"
                        id="radialGradient3839" xlink:href="#linearGradient3833"
                        gradientUnits="userSpaceOnUse"
                        gradientTransform="matrix(1,0,0,0.73,0,-3.01)"/>
        <filter color-interpolation-filters="sRGB" id="filter3843">
            <feGaussianBlur id="feGaussianBlur3845" stdDeviation="3.44"/>
        </filter>
        <linearGradient x1="78.4" y1="18.1" x2="4.82" y2="-60.3"
                        id="linearGradient3853" xlink:href="#linearGradient3847"
                        gradientUnits="userSpaceOnUse"/>
        <radialGradient cx="202" cy="-11.1" r="83.6" fx="202" fy="-11.1"
                        id="radialGradient4721" xlink:href="#linearGradient3833"
                        gradientUnits="userSpaceOnUse"
                        gradientTransform="matrix(1,0,0,0.73,0,969)"/>
        <linearGradient x1="78.4" y1="18.1" x2="4.82" y2="-60.3"
                        id="linearGradient4724" xlink:href="#linearGradient3847"
                        gradientUnits="userSpaceOnUse"
                        gradientTransform="translate(0,972)"/>
    </defs>
    <metadata id="metadata7">
        <rdf:RDF>
            <cc:Work rdf:about="">
                <dc:format>image/svg+xml</dc:format>
                <dc:type rdf:resource="http://purl.org/dc/dcmitype/StillImage"/>
                <dc:title>test1</dc:title>
                <dc:creator>
                    <cc:Agent>
                        <dc:title>Michael Cummings</dc:title>
                    </cc:Agent>
                </dc:creator>
                <dc:rights>
                    <cc:Agent>
                        <dc:title>ACME Gaming</dc:title>
                    </cc:Agent>
                </dc:rights>
                <dc:publisher>
                    <cc:Agent>
                        <dc:title>ACME Gaming</dc:title>
                    </cc:Agent>
                </dc:publisher>
                <dc:identifier>test1</dc:identifier>
            </cc:Work>
        </rdf:RDF>
    </metadata>
    <g transform="translate(0,-972)" id="layer1" inkscape:junk="junk">
        <rect width="231" height="80" x="0.829" y="-1.22"
              transform="translate(0,972)" id="rect2985"
              style="fill:#0000ab;fill-opacity:1"/>
        <path d="m -35.6,1010 c 32.09,10 65.2,10 92.8,30 15.3,10 29.3,30 32.3,40 -42.5,10 -85,10 -127.7,10 -4.8,0 -15.4,10 -16.3,0 5.4,-20 12.4,-50 18.9,-80 z"
              id="path2987"
              style="opacity:0.3;fill:#ffffff;fill-opacity:1;stroke:#ffffff;stroke-width:3;stroke-linecap:butt;stroke-linejoin:round;stroke-miterlimit:4;stroke-opacity:1;stroke-dasharray:none;filter:url(#filter3809)"/>
        <path d="m -149,74.7 0,-156.2 248.9,0 249.1,0 0,156.2 0,155.3 -249.1,0 -248.9,0 0,-155.3 z m 381,-35.8 0,-40.23 -116,0 -115.191,0 0,40.23 0,39.9 115.191,0 116,0 0,-39.9 z"
              transform="translate(0,972)" id="path3821"
              style="opacity:0.3;fill:#ffffff;fill-opacity:1;stroke:#ffffff;stroke-width:1.032;stroke-linejoin:round;stroke-miterlimit:4;stroke-opacity:1;stroke-dasharray:none"/>
        <path d="m 260,1010 c -39,0 -79,-18 -106,-48 -12,-13 -22,-29 -26,-46 50,-2 99,-5 149,-7 -6,35 -11,69 -17,101 z"
              id="path3827"
              style="opacity:0.3;fill:url(#radialGradient4721);fill-opacity:1;stroke:#ffffff;stroke-width:3;stroke-linecap:butt;stroke-linejoin:round;stroke-miterlimit:4;stroke-opacity:1;stroke-dasharray:none;filter:url(#filter3829)"/>
        <path d="m -24.8,1030 c 38.3,10 80.1,10 117,0 24.8,-10 47.8,-32 61.8,-55 5,-7 7,-18 -1,-23 -13,-7 -28,-6 -42,-5 -21.7,1 -43.5,5 -64.9,10 -23.6,25 -47.27,53 -70.9,73 z"
              id="path3841"
              style="opacity:0.226;fill:url(#linearGradient4724);fill-opacity:1;stroke:#ffffff;stroke-width:1px;stroke-linecap:butt;stroke-linejoin:round;stroke-opacity:1;filter:url(#filter3843)"/>
        <path d="m 156,1020 c -14,10 -21,-20 -5,-23 17,-12 41,1 46,23 10,20 -9,50 -34,60 -31,10 -65.2,-10 -75.9,-40 -14.1,-30 0.5,-76 30.9,-94 34,-23 82,-18 111,11 36,33 42,93 14,133 -28,40 -85,60 -133,50"
              id="path4731"
              style="fill:none;stroke:#585858;stroke-width:1;stroke-linecap:round;stroke-linejoin:round;stroke-miterlimit:4;stroke-opacity:1;stroke-dasharray:none"/>
        <path d="m 13.1,983 c 0.5,1 0.3,1 -0.2,1 -0.5,1 -1.2,1 -1.8,1 -1.1,-1 -1.45,-2 -1.26,-4 0.26,-1 1.76,-3 3.46,-3 2,0 4.1,1 5.4,2 1.8,2 2,6 0.6,8"
              id="path4751"
              style="fill:none;stroke:#000000;stroke-width:1px;stroke-linecap:butt;stroke-linejoin:miter;stroke-opacity:1"/>
    </g>
</svg>
